<?xml version="1.0" standalone="no"?>
<!DOCTYPE svg PUBLIC "-//W3C//DTD SVG 20010904//EN"
 "http://www.w3.org/TR/2001/REC-SVG-20010904/DTD/svg10.dtd">
<svg version="1.0" xmlns="http://www.w3.org/2000/svg"
 width="700.000000pt" height="700.000000pt" viewBox="0 0 700.000000 700.000000"
 preserveAspectRatio="xMidYMid meet">
<metadata>
Created by potrace 1.14, written by Peter Selinger 2001-2017
</metadata>
<g transform="translate(0.000000,700.000000) scale(0.100000,-0.100000)"
fill="#000000" stroke="none">
<path d="M6028 6882 c-39 -3 -289 -124 -522 -251 -71 -39 -131 -71 -133 -71
-2 0 -20 -10 -41 -23 -20 -13 -66 -40 -102 -59 -36 -20 -157 -89 -270 -153
-113 -65 -219 -126 -237 -136 -31 -17 -89 -52 -128 -76 -95 -58 -241 -136
-405 -217 -107 -52 -217 -109 -245 -124 -27 -16 -70 -41 -95 -55 -277 -155
-573 -387 -760 -594 -183 -202 -307 -422 -353 -628 -15 -66 -16 -93 -17 -1170
-1 -489 2 -723 10 -775 26 -166 128 -395 258 -580 74 -105 217 -256 302 -317
116 -85 547 -348 815 -498 274 -153 571 -316 725 -398 41 -22 131 -70 200
-107 69 -37 193 -102 275 -145 83 -43 182 -94 220 -115 39 -21 172 -90 298
-154 196 -100 234 -116 275 -116 38 0 55 6 85 31 20 17 46 49 56 72 69 152 93
230 111 354 11 83 16 695 5 768 -8 58 -46 176 -82 255 -75 165 -253 422 -383
551 -69 69 -240 203 -345 270 -22 14 -65 42 -95 61 -115 74 -266 162 -420 246
-36 19 -78 43 -95 52 -111 65 -921 470 -940 470 -2 0 -50 22 -107 49 -57 27
-148 70 -202 95 -114 53 -136 70 -136 103 0 59 153 149 905 528 479 242 714
367 883 472 66 41 307 198 312 203 3 3 34 28 70 55 383 288 604 601 636 900
15 151 3 596 -22 760 -20 138 -23 152 -45 240 -23 92 -55 151 -96 182 -38 27
-117 49 -165 45z"/>
<path d="M640 6454 c0 -148 -1 -852 -2 -1564 -1 -712 1 -1311 5 -1330 19 -100
35 -161 71 -270 80 -243 188 -441 346 -635 48 -58 179 -182 252 -238 146 -112
330 -202 520 -256 105 -29 125 -34 203 -45 22 -3 56 -8 75 -11 19 -3 94 -8
166 -11 l130 -6 3 1590 c2 1745 7 1594 -56 1782 -75 223 -201 460 -338 635
-69 88 -204 229 -263 272 -20 15 -39 31 -42 34 -14 16 -164 110 -225 142 -221
112 -423 163 -692 174 l-153 6 0 -269z"/>
</g>
</svg>
