<?xml version="1.0" encoding="UTF-8"?>
<svg id="Layer_1" data-name="Layer 1" xmlns="http://www.w3.org/2000/svg" viewBox="0 0 28.3 31.49">
  <defs>
    <style>
      .cls-1 {
        fill: #004d57;
        stroke-width: 0px;
      }
    </style>
  </defs>
  <path class="cls-1" d="M14.89,0c.39.08.78.15,1.17.25,3.39.88,5.75,4.06,5.59,7.51-.16,3.59-2.73,6.53-6.23,7.13-4.69.8-8.96-2.94-8.77-7.68C6.8,3.54,9.57.52,13.21.06c.07,0,.13-.04.2-.06.49,0,.98,0,1.48,0Z"/>
  <path class="cls-1" d="M28.3,31.49H0c.14-4.65,1.97-8.46,5.68-11.28,4.58-3.48,10.83-3.82,15.73-.8,4.47,2.74,6.67,6.84,6.89,12.08Z"/>
</svg>