<?xml version="1.0" encoding="UTF-8"?>
<svg id="Layer_1" data-name="Layer 1" xmlns="http://www.w3.org/2000/svg" viewBox="0 0 31.02 31.02">
  <defs>
    <style>
      .cls-1 {
        fill: #004d57;
        stroke-width: 0px;
      }
    </style>
  </defs>
  <path class="cls-1" d="M0,12.3C0,12.18,0,12.06,0,11.94c.12-.12.23-.25.36-.36,2.07-1.6,4.14-3.2,6.2-4.8C9.49,4.52,12.41,2.26,15.33,0c.12,0,.24,0,.36,0,.02.02.04.04.06.06,4.98,3.85,9.95,7.69,14.93,11.54.22.17.4.36.3.66-.1.32-.36.37-.65.36-.91,0-1.82,0-2.73,0-.11,0-.21,0-.34.02,0,.16,0,.29,0,.43,0,5.74,0,11.47,0,17.21,0,.6-.15.75-.76.75-2.06,0-4.12,0-6.18,0-.21,0-.42,0-.64,0-.43,0-.61-.19-.61-.61,0-.1,0-.2,0-.3,0-2.84,0-5.68,0-8.51,0-1.25-.86-2.31-2.26-2.26-.88.03-1.76,0-2.64,0-1.39,0-2.25.86-2.25,2.24,0,2.89,0,5.78,0,8.67,0,.63-.14.77-.76.77-2.22,0-4.44,0-6.67,0-.62,0-.76-.14-.76-.77,0-5.74,0-11.47,0-17.21v-.42c-.14,0-.25,0-.36,0-.89,0-1.78-.01-2.67,0C.42,12.63.18,12.56,0,12.3Z"/>
</svg>