<?xml version="1.0" encoding="UTF-8"?>
<svg id="Layer_1" data-name="Layer 1" xmlns="http://www.w3.org/2000/svg" viewBox="0 0 30.49 30.49">
  <defs>
    <style>
      .cls-1 {
        fill: #fff;
      }

      .cls-1, .cls-2 {
        stroke-width: 0px;
      }

      .cls-2 {
        fill: #004d57;
      }
    </style>
  </defs>
  <path class="cls-1" d="M30.49,7.43v23.06H7.55c.06-.02.11-.04.17-.05,1.23-.17,2.35-.63,3.32-1.41.23-.19.46-.38.67-.59,1.11-1.11,2.23-2.22,3.33-3.35.92-.94.52-2.5-.72-2.83-.64-.17-1.21,0-1.68.47-1.17,1.17-2.32,2.36-3.52,3.49-1.18,1.11-3.01,1.18-4.26.23-1.73-1.3-1.89-3.66-.34-5.22,2.25-2.26,4.51-4.51,6.76-6.77,1.41-1.41,3.4-1.45,4.87-.09.74.68,1.79.68,2.42-.01.68-.74.62-1.78-.15-2.48-2.79-2.56-6.86-2.48-9.53.19-2.28,2.27-4.56,4.55-6.82,6.83C.73,20.24.06,21.85.06,23.74c0,2.98,1.96,5.61,4.82,6.46.41.12.82.19,1.24.29H0C0,20.33,0,10.16,0,0c10.16,0,20.33,0,30.49,0,0,2.12,0,4.24,0,6.36-.02-.08-.04-.15-.05-.23-.34-2.64-1.72-4.55-4.18-5.55-2.51-1.02-4.92-.64-6.97,1.14-1.37,1.18-2.6,2.53-3.86,3.82-.48.5-.57,1.12-.3,1.77.46,1.1,1.88,1.39,2.74.55,1.17-1.14,2.31-2.32,3.47-3.46,1.42-1.38,3.7-1.26,4.97.25,1.16,1.38,1.05,3.34-.26,4.66-1.66,1.66-3.32,3.32-4.98,4.98-.65.65-1.29,1.32-1.96,1.94-1.13,1.05-2.71,1.21-4.04.42-.28-.16-.52-.39-.78-.59-.74-.58-1.74-.52-2.33.15-.63.7-.59,1.69.1,2.38,2.55,2.55,6.83,2.6,9.42.07,2.34-2.29,4.65-4.62,6.96-6.94.86-.86,1.49-1.87,1.8-3.06.11-.4.17-.81.25-1.22Z"/>
  <path class="cls-2" d="M30.49,7.43c-.08.41-.14.82-.25,1.22-.31,1.19-.94,2.2-1.8,3.06-2.32,2.32-4.62,4.65-6.96,6.94-2.59,2.53-6.87,2.49-9.42-.07-.68-.69-.73-1.67-.1-2.38.59-.66,1.59-.73,2.33-.15.26.2.5.43.78.59,1.33.79,2.91.63,4.04-.42.68-.63,1.31-1.29,1.96-1.94,1.66-1.66,3.33-3.31,4.98-4.98,1.31-1.32,1.42-3.28.26-4.66-1.27-1.51-3.55-1.64-4.97-.25-1.17,1.14-2.31,2.31-3.47,3.46-.86.84-2.28.56-2.74-.55-.27-.64-.18-1.27.3-1.77,1.27-1.3,2.49-2.64,3.86-3.82C21.35-.05,23.75-.43,26.26.58c2.45,1,3.84,2.91,4.18,5.55,0,.08.03.15.05.23v1.07Z"/>
  <path class="cls-2" d="M6.12,30.49c-.41-.1-.83-.17-1.24-.29C2.03,29.35.07,26.72.06,23.74c0-1.89.67-3.5,1.99-4.84,2.27-2.28,4.54-4.56,6.82-6.83,2.68-2.67,6.75-2.75,9.53-.19.77.7.83,1.74.15,2.48-.63.69-1.68.69-2.42.01-1.47-1.35-3.46-1.32-4.87.09-2.26,2.25-4.51,4.51-6.76,6.77-1.55,1.56-1.39,3.92.34,5.22,1.26.95,3.09.88,4.26-.23,1.2-1.13,2.35-2.32,3.52-3.49.48-.48,1.04-.64,1.68-.47,1.24.33,1.64,1.89.72,2.83-1.1,1.12-2.22,2.24-3.33,3.35-.21.21-.44.4-.67.59-.97.78-2.09,1.24-3.32,1.41-.06,0-.11.03-.17.05h-1.43Z"/>
</svg>