<?xml version="1.0" encoding="UTF-8"?>
<svg id="Layer_1" data-name="Layer 1" xmlns="http://www.w3.org/2000/svg" viewBox="0 0 30.43 30.46">
  <defs>
    <style>
      .cls-1 {
        fill: #004d57;
        stroke-width: 0px;
      }
    </style>
  </defs>
  <path class="cls-1" d="M30.43,7.4c-.08.41-.14.82-.25,1.22-.31,1.19-.94,2.2-1.8,3.06-2.32,2.32-4.62,4.65-6.96,6.94-2.59,2.53-6.87,2.49-9.42-.07-.68-.69-.73-1.67-.1-2.38.59-.66,1.59-.73,2.33-.15.26.2.5.43.78.59,1.33.79,2.91.63,4.04-.42.68-.63,1.31-1.29,1.96-1.94,1.66-1.66,3.33-3.31,4.98-4.98,1.31-1.32,1.42-3.28.26-4.66-1.27-1.51-3.55-1.64-4.97-.25-1.17,1.14-2.31,2.31-3.47,3.46-.86.84-2.28.56-2.74-.55-.27-.64-.18-1.27.3-1.77,1.27-1.3,2.49-2.64,3.86-3.82C21.28-.08,23.69-.46,26.2.56c2.45,1,3.84,2.91,4.18,5.55,0,.08.03.15.05.23v1.07Z"/>
  <path class="cls-1" d="M6.06,30.46c-.41-.1-.83-.17-1.24-.29C1.96,29.32,0,26.69,0,23.71c0-1.89.67-3.5,1.99-4.84,2.27-2.28,4.54-4.56,6.82-6.83,2.68-2.67,6.75-2.75,9.53-.19.77.7.83,1.74.15,2.48-.63.69-1.68.69-2.42.01-1.47-1.35-3.46-1.32-4.87.09-2.26,2.25-4.51,4.51-6.76,6.77-1.55,1.56-1.39,3.92.34,5.22,1.26.95,3.09.88,4.26-.23,1.2-1.13,2.35-2.32,3.52-3.49.48-.48,1.04-.64,1.68-.47,1.24.33,1.64,1.89.72,2.83-1.1,1.12-2.22,2.24-3.33,3.35-.21.21-.44.4-.67.59-.97.78-2.09,1.24-3.32,1.41-.06,0-.11.03-.17.05h-1.43Z"/>
</svg>