<?xml version="1.0" encoding="utf-8"?>
<!-- Generator: Adobe Illustrator 28.1.0, SVG Export Plug-In . SVG Version: 6.00 Build 0)  -->
<svg version="1.1" id="Layer_1" xmlns="http://www.w3.org/2000/svg" xmlns:xlink="http://www.w3.org/1999/xlink" x="0px" y="0px"
	 viewBox="0 0 31.3 31.2" style="enable-background:new 0 0 31.3 31.2;" xml:space="preserve">
<style type="text/css">
	.st0{fill:#004D57;}
	.st1{fill:#FFFFFF;}
</style>
<path class="st0" d="M0,5.3c0.5-1,1.3-1.4,2.4-1.3c2.7,0,5.3,0,8,0c0.8,0,1.4,0.2,2,0.8c0.6,0.7,1.3,1.3,2,2
	c0.4,0.4,0.8,0.6,1.3,0.6c2.6,0,5.1,0,7.7,0c1.5,0,2.2,0.7,2.2,2.2c0,0.8,0,1.6,0,2.6c1.2,0,2.3,0.1,3.4,0c2-0.1,2.3,0.9,1.8,2.5
	c-1.2,3.8-2.2,7.6-3.4,11.4c-0.5,1.5-0.9,1.8-2.5,1.8c-7.7,0-15.4,0-23.1,0c-0.9,0-1.5-0.3-1.9-1.1L0,5.3L0,5.3z M2.8,26.7
	c0.4,0,0.6,0,0.8,0c7.1,0,14.2,0,21.4,0c1.1,0,1.2-0.1,1.5-1.1c1.2-3.9,2.3-7.9,3.5-11.8c0.2-0.6,0.1-0.7-0.5-0.7
	c-7.3,0-14.6,0-21.8,0c-0.6,0-1,0.3-1.1,0.9c-0.8,2.9-1.6,5.7-2.5,8.6C3.6,23.9,3.2,25.3,2.8,26.7L2.8,26.7z M1,15.9
	c0,3.3,0,6.6,0,9.8c0,0.2,0,0.4,0,0.5c0,0.1,0.2,0.3,0.3,0.4c0.1,0,0.3-0.1,0.4-0.2c0.1-0.1,0.1-0.3,0.2-0.4
	c1.2-4.1,2.3-8.1,3.5-12.2c0.4-1.4,0.9-1.8,2.4-1.8c3.2,0,6.3,0,9.5,0c2.2,0,4.4,0,6.6,0c0.5,0,0.7-0.2,0.6-0.7c0-0.6,0-1.2,0-1.9
	c0-1-0.2-1.2-1.2-1.2c-2.6,0-5.2,0-7.8,0c-0.8,0-1.4-0.2-1.9-0.8c-0.6-0.7-1.4-1.3-2-2C11.3,5.2,10.9,5,10.4,5C7.7,5,5,5,2.2,5
	c-1,0-1.2,0.2-1.2,1.2C1.1,9.5,1.1,12.7,1,15.9L1,15.9z"/>
<path class="st1" d="M2.8,26.4C3.2,25,3.6,23.6,4,22.3c0.8-2.9,1.7-5.8,2.5-8.6C6.6,13,7,12.8,7.6,12.8c7.3,0,14.6,0,21.8,0
	c0.6,0,0.7,0.1,0.5,0.7c-1.2,3.9-2.3,7.9-3.5,11.8c-0.3,1-0.4,1.1-1.5,1.1c-7.1,0-14.2,0-21.4,0C3.4,26.4,3.2,26.4,2.8,26.4
	L2.8,26.4z"/>
<path class="st1" d="M1.1,15.6c0-3.2,0-6.5,0-9.7c0-1,0.2-1.2,1.2-1.2c2.7,0,5.4,0,8.1,0c0.6,0,1,0.2,1.3,0.6c0.6,0.7,1.4,1.3,2,2
	c0.5,0.6,1.1,0.8,1.9,0.8c2.6,0,5.2,0,7.8,0c1,0,1.2,0.2,1.2,1.2c0,0.6,0,1.3,0,1.9c0,0.5-0.1,0.7-0.6,0.7c-2.2,0-4.4,0-6.6,0
	c-3.2,0-6.4,0-9.5,0c-1.5,0-2,0.4-2.4,1.8c-1.2,4.1-2.3,8.1-3.5,12.2c0,0.1-0.1,0.3-0.2,0.4c-0.1,0.1-0.3,0.3-0.4,0.2
	c-0.1-0.1-0.3-0.2-0.3-0.4c0-0.2,0-0.4,0-0.5C1.1,22.1,1.1,18.9,1.1,15.6L1.1,15.6z"/>
</svg>
