<?xml version="1.0" encoding="UTF-8"?>
<svg id="Layer_1" data-name="Layer 1" xmlns="http://www.w3.org/2000/svg" viewBox="0 0 31.26 31.21">
  <defs>
    <style>
      .cls-1 {
        fill: #fff;
      }

      .cls-1, .cls-2 {
        stroke-width: 0px;
      }

      .cls-2 {
        fill: #004d57;
      }
    </style>
  </defs>
  <path class="cls-1" d="M.05,4.98V0c10.4,0,20.81,0,31.21,0,0,10.4,0,20.81,0,31.21-10.4,0-20.81,0-31.21,0,0-1.62,0-3.24,0-4.86.35.84.99,1.1,1.88,1.1,7.69-.02,15.38-.01,23.07-.01,1.56,0,2.04-.33,2.49-1.83,1.13-3.8,2.2-7.62,3.39-11.39.49-1.55.14-2.61-1.84-2.48-1.1.07-2.21.01-3.4.01,0-.9,0-1.72,0-2.55,0-1.52-.66-2.19-2.18-2.19-2.57,0-5.14-.01-7.71,0-.55,0-.97-.16-1.34-.56-.64-.68-1.33-1.3-1.96-1.99-.55-.6-1.18-.84-1.99-.83-2.67.03-5.34.04-8.01,0-1.11-.02-1.93.3-2.39,1.34Z"/>
  <path class="cls-2" d="M0,5.29c.46-1.04,1.28-1.36,2.39-1.34,2.67.05,5.34.03,8.01,0,.81,0,1.44.23,1.99.83.63.69,1.32,1.31,1.96,1.99.38.4.79.56,1.34.56,2.57-.02,5.14-.01,7.71,0,1.52,0,2.17.67,2.18,2.19,0,.82,0,1.65,0,2.55,1.18,0,2.3.06,3.4-.01,1.98-.13,2.33.92,1.84,2.48-1.19,3.78-2.25,7.6-3.39,11.39-.45,1.5-.93,1.83-2.49,1.83-7.69,0-15.38,0-23.07.01-.89,0-1.53-.26-1.88-1.1V5.29ZM2.77,26.73c.36,0,.6,0,.84,0,7.12,0,14.24,0,21.36,0,1.07,0,1.18-.07,1.49-1.11,1.17-3.93,2.32-7.87,3.48-11.8.17-.59.08-.72-.55-.72-7.28,0-14.56,0-21.84,0-.62,0-.96.27-1.12.87-.81,2.88-1.64,5.75-2.46,8.63-.38,1.34-.76,2.67-1.18,4.14ZM1.05,15.92c0,3.28,0,6.55,0,9.83,0,.18-.03.38.02.54.05.15.17.32.31.38.07.03.27-.13.36-.24.08-.1.12-.26.16-.39,1.17-4.06,2.33-8.12,3.5-12.18.41-1.42.9-1.79,2.39-1.79,3.18,0,6.35,0,9.53,0,2.2,0,4.41-.02,6.61.01.51,0,.67-.16.64-.66-.04-.62,0-1.25,0-1.88,0-.98-.19-1.16-1.18-1.16-2.59,0-5.18-.01-7.77,0-.76,0-1.37-.24-1.89-.79-.65-.69-1.35-1.34-2.01-2.03-.37-.4-.78-.57-1.34-.56-2.71.02-5.42,0-8.13.01-1.03,0-1.19.17-1.19,1.2,0,3.24,0,6.47,0,9.71Z"/>
  <path class="cls-1" d="M2.82,26.41c.42-1.46.8-2.8,1.18-4.14.82-2.88,1.66-5.75,2.46-8.63.17-.6.5-.87,1.12-.87,7.28,0,14.56,0,21.84,0,.64,0,.73.13.55.72-1.16,3.94-2.32,7.87-3.48,11.8-.31,1.04-.42,1.11-1.49,1.11-7.12,0-14.24,0-21.36,0-.24,0-.48,0-.84,0Z"/>
  <path class="cls-1" d="M1.1,15.6c0-3.24,0-6.47,0-9.71,0-1.03.17-1.2,1.19-1.2,2.71,0,5.42.01,8.13-.01.55,0,.96.17,1.34.56.65.69,1.35,1.34,2.01,2.03.52.55,1.13.8,1.89.79,2.59-.02,5.18,0,7.77,0,.99,0,1.18.18,1.18,1.16,0,.63-.03,1.26,0,1.88.03.5-.13.66-.64.66-2.2-.03-4.41-.01-6.61-.01-3.18,0-6.35,0-9.53,0-1.49,0-1.98.37-2.39,1.79-1.17,4.06-2.33,8.12-3.5,12.18-.04.14-.07.29-.16.39-.09.11-.28.28-.36.24-.14-.06-.26-.23-.31-.38-.05-.17-.02-.36-.02-.54,0-3.28,0-6.55,0-9.83Z"/>
</svg>