<?xml version="1.0" encoding="UTF-8"?>
<svg id="Layer_1" data-name="Layer 1" xmlns="http://www.w3.org/2000/svg" viewBox="0 0 31.2 28.21">
  <defs>
    <style>
      .cls-1 {
        fill: #004d57;
        stroke-width: 0px;
      }
    </style>
  </defs>
  <path class="cls-1" d="M31.2,13.62c-1.54,3.54-3.09,7.07-4.63,10.61-.37.84-.74,1.67-1.09,2.51-.42.99-1.15,1.47-2.23,1.47-7.01,0-14.02,0-21.04,0-1.38,0-2.2-.82-2.2-2.21C0,18.84,0,11.69,0,4.53c0-1.3.81-2.22,1.95-2.32.43-.04.8.06.89.53.09.46-.19.7-.62.82-.74.21-.86.39-.86,1.3,0,4.94,0,9.88,0,14.82,0,2.01,0,4.02,0,6.04,0,.94.16,1.09,1.11,1.09,6.81,0,13.62,0,20.43,0,.99,0,1.04-.05,1.44-.97,1.69-3.89,3.39-7.79,5.09-11.68.02-.06.05-.11.08-.17.51-1.16.39-1.33-.88-1.33-6.5,0-13.01.01-19.51-.02-.87,0-1.36.27-1.71,1.11-1.15,2.76-2.37,5.48-3.57,8.21-.11.25-.28.54-.5.65-.18.09-.61.03-.7-.12-.15-.23-.23-.63-.13-.87.53-1.34,1.13-2.65,1.7-3.98.63-1.45,1.27-2.9,1.89-4.36.68-1.6,1.28-2.02,3.01-2.02,6.52,0,13.05.02,19.57-.01,1.19,0,2.06.34,2.51,1.5v.85Z"/>
  <path class="cls-1" d="M23.5,1.39c-.32,0-.54,0-.76,0-5.59,0-11.18.01-16.77-.02-.63,0-.77.18-.77.79.03,3.33.01,6.67.01,10,0,.79-.21,1.15-.68,1.15-.48,0-.7-.35-.7-1.14,0-3.7,0-7.4,0-11.1,0-.88.19-1.08,1.08-1.08,6.3,0,12.6,0,18.9,0,.88,0,1.07.2,1.07,1.09,0,2.4,0,4.8,0,7.19,0,.14,0,.29-.01.43-.04.4-.29.71-.66.64-.26-.05-.57-.36-.67-.62-.12-.3-.04-.68-.04-1.03,0-1.85,0-3.7,0-5.55v-.76Z"/>
  <path class="cls-1" d="M13.9,8.35c-1.95,0-3.9,0-5.85,0-.25,0-.56-.03-.75-.16-.16-.11-.29-.42-.26-.62.03-.2.24-.42.42-.52.18-.1.43-.07.66-.07,3.88,0,7.76,0,11.64,0,.08,0,.16,0,.24,0,.46,0,.84.15.85.67.01.55-.37.72-.86.72-2.03,0-4.06,0-6.1,0Z"/>
  <path class="cls-1" d="M10.84,4.96c-.97,0-1.94,0-2.92,0-.48,0-.86-.13-.91-.67-.04-.45.3-.71.92-.71,1.96,0,3.93,0,5.89,0,.61,0,.98.26.94.7-.05.58-.46.69-.96.68-.99,0-1.98,0-2.98,0Z"/>
</svg>