<?xml version="1.0" encoding="UTF-8"?>
<svg id="Layer_1" data-name="Layer 1" xmlns="http://www.w3.org/2000/svg" viewBox="0 0 31.07 31.07">
  <defs>
    <style>
      .cls-1 {
        fill: #fff;
      }

      .cls-1, .cls-2 {
        stroke-width: 0px;
      }

      .cls-2 {
        fill: #004d57;
      }
    </style>
  </defs>
  <path class="cls-2" d="M0,16.87c0-.97,0-1.94,0-2.91.04-.21.09-.43.13-.64C1.26,7.05,4.84,2.85,10.84.76c1.19-.41,2.48-.52,3.73-.76.65,0,1.29,0,1.94,0,.16.03.31.08.47.09,8.46.82,14.68,8.21,14.04,16.72-.56,7.46-6.71,13.62-14.2,14.21-7.66.6-14.62-4.4-16.37-11.77C.27,18.46.15,17.66,0,16.87ZM4.59,7.7c-1.42,2.04-2.28,4.26-2.47,6.82,1.58,0,3.05.01,4.52-.02.13,0,.34-.28.37-.46.21-1.42.39-2.84.55-4.26.02-.18-.1-.48-.24-.57-.87-.51-1.76-.98-2.73-1.51ZM28.94,14.51c-.21-2.56-1.04-4.8-2.47-6.81-.96.53-1.87,1.01-2.76,1.52-.13.07-.24.32-.22.47.17,1.48.36,2.96.56,4.44.02.14.18.36.28.36,1.51.02,3.02.02,4.61.02ZM28.94,16.59c-1.57,0-3.08,0-4.59.02-.1,0-.27.26-.3.41-.2,1.44-.39,2.88-.56,4.33-.02.15.02.41.12.47.92.53,1.86,1.03,2.85,1.57,1.41-2.02,2.29-4.23,2.47-6.79ZM2.13,16.59c.22,2.58,1.06,4.8,2.48,6.79.98-.54,1.89-1.02,2.78-1.53.12-.07.21-.33.19-.48-.17-1.46-.36-2.92-.57-4.38-.02-.14-.21-.37-.33-.37-1.49-.03-2.98-.02-4.56-.02ZM9.01,14.52c1.84,0,3.51,0,5.18-.01.11,0,.29-.21.3-.33.02-1.07.01-2.13.01-3.18-1.64-.29-3.22-.56-4.94-.86-.18,1.42-.36,2.85-.56,4.38ZM21.51,10.13c-1.71.3-3.29.57-4.88.85v3.49h5.42c-.19-1.49-.37-2.92-.55-4.34ZM14.5,16.64h-5.48c.19,1.49.38,2.9.55,4.25,1.63-.24,3.11-.45,4.58-.68.13-.02.33-.2.34-.31.03-1.08.02-2.17.02-3.26ZM21.51,20.89c.17-1.39.35-2.8.53-4.26h-5.46c0,1.1-.01,2.15.02,3.2,0,.13.2.35.33.37,1.47.24,2.95.45,4.58.69ZM10.16,8.05c1.47.45,2.84.76,4.3.73V2.24c-2.45,1.23-3.39,3.44-4.3,5.81ZM14.45,28.86v-6.53c-1.19-.09-3.61.37-4.23.81.85,2.25,1.8,4.44,4.23,5.72ZM20.93,8.16c-.94-2.46-1.86-4.68-4.31-5.92v6.66c1.44-.25,2.82-.49,4.31-.75ZM16.64,22.17v6.68c2.41-1.31,3.39-3.47,4.28-5.91-1.47-.27-2.85-.51-4.28-.77ZM8.12,7.3c.68-1.4,1.32-2.71,1.99-4.08-1.57.7-2.92,1.59-4.14,2.88.78.44,1.47.83,2.15,1.2ZM20.94,3.2c.69,1.41,1.33,2.72,2.01,4.12.7-.4,1.39-.8,2.15-1.24-1.26-1.27-2.6-2.17-4.15-2.88ZM10.11,27.84c-.67-1.38-1.31-2.7-1.98-4.09-.69.41-1.39.81-2.14,1.26,1.27,1.24,2.58,2.17,4.12,2.83ZM22.95,23.76c-.68,1.4-1.33,2.71-2.01,4.11,1.56-.73,2.92-1.61,4.13-2.88-.77-.44-1.45-.84-2.13-1.23Z"/>
  <path class="cls-1" d="M4.59,7.7c.97.53,1.86,1,2.73,1.51.15.09.26.38.24.57-.16,1.42-.34,2.84-.55,4.26-.03.17-.24.46-.37.46-1.47.03-2.94.02-4.52.02.18-2.56,1.05-4.78,2.47-6.82Z"/>
  <path class="cls-1" d="M28.94,14.51c-1.59,0-3.1,0-4.61-.02-.1,0-.26-.23-.28-.36-.21-1.48-.4-2.96-.56-4.44-.02-.15.09-.4.22-.47.89-.51,1.79-1,2.76-1.52,1.43,2.01,2.26,4.25,2.47,6.81Z"/>
  <path class="cls-1" d="M28.94,16.59c-.18,2.56-1.06,4.76-2.47,6.79-.99-.54-1.93-1.04-2.85-1.57-.1-.06-.13-.31-.12-.47.17-1.44.35-2.89.56-4.33.02-.15.19-.41.3-.41,1.51-.03,3.02-.02,4.59-.02Z"/>
  <path class="cls-1" d="M2.13,16.59c1.58,0,3.07,0,4.56.02.12,0,.31.23.33.37.21,1.46.4,2.92.57,4.38.02.16-.07.41-.19.48-.89.52-1.8,1-2.78,1.53-1.42-1.99-2.26-4.21-2.48-6.79Z"/>
  <path class="cls-1" d="M9.01,14.52c.2-1.54.38-2.96.56-4.38,1.71.3,3.29.57,4.94.86,0,1.05,0,2.12-.01,3.18,0,.12-.19.33-.3.33-1.67.02-3.34.01-5.18.01Z"/>
  <path class="cls-1" d="M21.51,10.13c.18,1.42.36,2.85.55,4.34h-5.42v-3.49c1.58-.28,3.16-.55,4.88-.85Z"/>
  <path class="cls-1" d="M14.5,16.64c0,1.1,0,2.18-.02,3.26,0,.11-.21.29-.34.31-1.47.23-2.94.44-4.58.68-.18-1.35-.36-2.77-.55-4.25h5.48Z"/>
  <path class="cls-1" d="M21.51,20.89c-1.63-.24-3.11-.45-4.58-.69-.13-.02-.33-.24-.33-.37-.03-1.05-.02-2.1-.02-3.2h5.46c-.18,1.46-.36,2.87-.53,4.26Z"/>
  <path class="cls-1" d="M10.16,8.05c.9-2.37,1.84-4.58,4.3-5.81v6.54c-1.45.03-2.83-.28-4.3-.73Z"/>
  <path class="cls-1" d="M14.45,28.86c-2.44-1.28-3.38-3.46-4.23-5.72.62-.44,3.04-.91,4.23-.81v6.53Z"/>
  <path class="cls-1" d="M20.93,8.16c-1.5.26-2.87.5-4.31.75V2.25c2.45,1.24,3.37,3.45,4.31,5.92Z"/>
  <path class="cls-1" d="M16.64,22.17c1.43.26,2.81.51,4.28.77-.89,2.43-1.87,4.6-4.28,5.91v-6.68Z"/>
  <path class="cls-1" d="M8.12,7.3c-.67-.38-1.36-.76-2.15-1.2,1.22-1.29,2.57-2.18,4.14-2.88-.67,1.38-1.31,2.68-1.99,4.08Z"/>
  <path class="cls-1" d="M20.94,3.2c1.56.71,2.89,1.61,4.15,2.88-.75.43-1.45.84-2.15,1.24-.68-1.4-1.32-2.71-2.01-4.12Z"/>
  <path class="cls-1" d="M10.11,27.84c-1.54-.66-2.85-1.59-4.12-2.83.75-.44,1.45-.85,2.14-1.26.67,1.39,1.31,2.71,1.98,4.09Z"/>
  <path class="cls-1" d="M22.95,23.76c.67.39,1.36.78,2.13,1.23-1.21,1.27-2.57,2.15-4.13,2.88.68-1.39,1.32-2.71,2.01-4.11Z"/>
</svg>