<?xml version="1.0" encoding="UTF-8"?>
<svg id="Layer_1" data-name="Layer 1" xmlns="http://www.w3.org/2000/svg" viewBox="0 0 30.7 30.11">
  <defs>
    <style>
      .cls-1 {
        fill: #004d57;
        stroke-width: 0px;
      }
    </style>
  </defs>
  <path class="cls-1" d="M0,4.14c.55.2,1.09.43,1.65.61,1.67.54,3.4.77,5.14.95,2.46.25,4.93.32,7.39.18,2.59-.15,5.16-.4,7.64-1.19.47-.15.93-.35,1.42-.54v6.48c-.12,0-.24,0-.36,0-1.63,0-3.26,0-4.89,0-.97,0-1.67.5-1.87,1.32-.06.26-.06.53-.09.85-.38.03-.77.07-1.16.09-2.42.16-4.83.15-7.25-.05-2.19-.19-4.37-.47-6.44-1.28C.77,11.4.4,11.1,0,10.86,0,8.62,0,6.38,0,4.14ZM11.64,10.22h0c.12,0,.24.02.36,0,.42-.03.72-.34.72-.73,0-.4-.28-.72-.7-.75-.28-.02-.56-.02-.83.02-.37.04-.62.37-.62.73,0,.38.28.69.66.73.14.02.28,0,.42,0Z"/>
  <path class="cls-1" d="M0,21.24c.42.16.83.35,1.25.49,1.79.61,3.64.88,5.51,1.07,2.57.27,5.14.31,7.72.17.52-.03,1.04-.07,1.58-.11v7.05c-.65.05-1.31.1-1.96.13-2.21.11-4.41.08-6.62-.11-2.08-.18-4.15-.47-6.12-1.2C.86,28.56.37,28.36,0,27.96,0,25.72,0,23.48,0,21.24ZM11.65,25.85c-.14,0-.28-.01-.42,0-.38.04-.66.34-.67.71-.01.36.26.71.63.75.31.03.64.03.95-.02.43-.06.67-.53.53-.94-.14-.4-.38-.52-1.02-.51Z"/>
  <path class="cls-1" d="M0,12.66c1.73.84,3.6,1.18,5.48,1.44,2.83.39,5.67.48,8.52.35.68-.03,1.35-.08,2.06-.13v7.07c-1.25.05-2.5.12-3.74.15-2.25.05-4.5-.05-6.73-.37-1.63-.23-3.26-.52-4.77-1.22-.3-.14-.55-.38-.82-.58,0-2.24,0-4.48,0-6.72ZM11.64,18.79s0,0,0-.01c.14,0,.28.01.42,0,.37-.04.63-.33.66-.7.03-.35-.22-.71-.58-.76-.32-.04-.66-.04-.98,0-.37.05-.61.39-.59.75.01.34.28.64.63.7.15.02.3.02.45.02Z"/>
  <path class="cls-1" d="M0,2.17c.45-.48,1.04-.69,1.63-.89C3.47.65,5.37.37,7.3.19,9.66-.02,12.02-.05,14.39.08c2.34.13,4.66.38,6.9,1.08.57.18,1.11.44,1.64.72.46.25.45.43,0,.72-.76.49-1.61.73-2.47.95-2.65.66-5.35.87-8.08.9-2.24.03-4.47-.06-6.7-.36-1.57-.21-3.12-.49-4.58-1.11C.71,2.81.36,2.52,0,2.29c0-.04,0-.08,0-.12Z"/>
  <path class="cls-1" d="M30.7,16.4v.36c0,4.29,0,8.58,0,12.86,0,.47-.02.49-.49.49-4.05,0-8.1,0-12.14,0-.47,0-.49-.02-.49-.49,0-5.66,0-11.31,0-16.97,0-.48.03-.51.51-.51,2.66,0,5.32,0,7.98,0q.38,0,.38.4c0,.71,0,1.42,0,2.13,0,1.06.69,1.73,1.75,1.73.82,0,1.64,0,2.51,0ZM20.97,23.6c.34-.34.63-.62.92-.91.29-.3.31-.65.07-.9-.26-.26-.61-.25-.92.06-.43.42-.85.84-1.27,1.27-.3.31-.3.64,0,.94.42.43.84.85,1.27,1.27.31.3.67.33.92.07.26-.26.23-.62-.07-.92-.29-.29-.58-.57-.9-.88ZM28.02,23.58c-.35.34-.67.63-.97.94-.28.28-.29.64-.04.88.25.25.6.25.88-.02.45-.44.89-.88,1.33-1.34.27-.28.27-.63,0-.9-.43-.44-.87-.88-1.32-1.31-.3-.29-.65-.29-.9-.04-.25.26-.23.6.07.9.3.29.6.57.94.9ZM23.2,24.91c0,.36.16.56.44.64.29.08.55-.04.71-.35.44-.87.87-1.75,1.3-2.62.19-.39.11-.75-.21-.91-.32-.17-.68-.02-.87.38-.43.86-.85,1.71-1.27,2.57-.06.11-.09.24-.1.3Z"/>
  <path class="cls-1" d="M27.94,12.7c.75.75,1.45,1.45,2.16,2.17-.06.01-.12.04-.18.04-.55,0-1.1,0-1.65,0-.24,0-.34-.09-.34-.34.01-.61,0-1.21,0-1.88Z"/>
</svg>