<?xml version="1.0" encoding="UTF-8"?>
<svg id="Layer_1" data-name="Layer 1" xmlns="http://www.w3.org/2000/svg" viewBox="0 0 512 512">
  <defs>
    <style>
      .cls-1 {
        fill: #007fbc;
      }

      .cls-1, .cls-2 {
        stroke-width: 0px;
      }

      .cls-2 {
        fill: #fff;
      }
    </style>
  </defs>
  <path class="cls-1" d="M0,503.56V8.44C0,3.78,3.78,0,8.44,0h495.13c4.66,0,8.44,3.78,8.44,8.44v495.13c0,4.66-3.78,8.44-8.44,8.44H8.44c-4.66,0-8.44-3.78-8.44-8.44ZM277.07,226.24v-.92c0-9.87-.01-19.75.01-29.62,0-1.06-.21-1.56-1.45-1.56-23.62.03-47.25.03-70.87,0-1.02,0-1.39.32-1.37,1.36.05,2.62.02,5.25.02,7.87,0,75.77,0,151.53,0,227.3,0,5.75,4.66,10.41,10.41,10.41,3.15,0,6.29,0,9.44,0,17.37,0,34.75,0,52.12,0,1.68,0,1.68,0,1.69-1.65,0-.42,0-.83,0-1.25,0-41.79-.01-83.58.02-125.37,0-3.9.2-7.82.51-11.71.55-6.88,2.14-13.53,4.93-19.87,4.45-10.08,11.51-17.57,21.91-21.58.56-.22,1.13-.42,1.69-.62,25.99-8.97,53.58,8.6,57.61,35.81.55,3.71.8,7.49.82,11.28.2,44.29.1,88.58.11,132.87q0,2.09,2.13,2.09c21.27,0,42.54,0,63.81,0,5.79,0,10.48-4.69,10.48-10.48,0-48.47,0-96.95,0-145.42,0-7.79-.53-15.53-1.71-23.24-1.54-10.09-4.21-19.83-8.56-29.08-7.2-15.32-18.02-27.3-32.96-35.41-13.33-7.24-27.76-10.23-42.77-10.78-7.33-.27-14.62.26-21.84,1.68-19,3.74-34.87,12.98-47.79,27.32-3,3.33-5.6,7.01-8.4,10.55ZM155.04,317.59c0-40.5,0-81,0-121.49q0-1.93-1.91-1.93c-24.29,0-48.58,0-72.87,0q-2.02,0-2.03,2.07c0,.17,0,.33,0,.5,0,80.62,0,161.24,0,241.86,0,.42.02.83,0,1.25-.04.87.28,1.33,1.23,1.26.79-.06,1.58-.01,2.37-.01,23.75,0,47.5,0,71.25,0q1.96,0,1.96-2.01c0-.37,0-.75,0-1.12,0-40.12,0-80.25,0-120.37ZM161.59,116.66c-.08-25.31-20.14-45.71-45.3-45.72-25.06-.01-45.28,20.2-45.35,45.53-.07,25.27,19.96,45.81,45.35,45.79,25.47-.02,45.17-20.62,45.31-45.6Z"/>
  <path class="cls-2" d="M277.07,226.24c2.8-3.54,5.4-7.22,8.4-10.55,12.91-14.34,28.78-23.58,47.79-27.32,7.22-1.42,14.51-1.95,21.84-1.68,15.01.55,29.44,3.54,42.77,10.78,14.94,8.11,25.76,20.09,32.96,35.41,4.35,9.25,7.02,18.99,8.56,29.08,1.18,7.71,1.71,15.45,1.71,23.24,0,51.29,0,102.58,0,153.87q0,2.03-2.04,2.03c-24.08,0-48.16,0-72.25,0q-2.12,0-2.13-2.09c-.01-44.29.09-88.58-.11-132.87-.05-10.79-2.01-21.36-7.25-31.04-5.5-10.15-14.01-16.16-25.4-18.01-9.37-1.53-18.58-.85-27.47,2.58-10.39,4.01-17.46,11.5-21.91,21.58-2.79,6.33-4.38,12.99-4.93,19.87-.31,3.89-.51,7.81-.51,11.71-.04,41.79-.02,83.58-.02,125.37,0,.42,0,.83,0,1.25-.01,1.65-.01,1.65-1.69,1.65-17.37,0-34.75,0-52.12,0-5.96,0-11.92,0-17.87,0q-1.97,0-1.97-1.98c0-78.58,0-157.16,0-235.74,0-2.62.04-5.25-.02-7.87-.02-1.04.35-1.36,1.37-1.36,23.62.02,47.25.02,70.87,0,1.23,0,1.45.5,1.45,1.56-.02,9.87-.01,19.75-.01,29.62v.92Z"/>
  <path class="cls-2" d="M155.04,317.59c0,40.12,0,80.25,0,120.37,0,.37,0,.75,0,1.12q0,2.01-1.96,2.01c-23.75,0-47.5,0-71.25,0-.79,0-1.59-.05-2.37.01-.95.07-1.27-.38-1.23-1.26.02-.42,0-.83,0-1.25,0-80.62,0-161.24,0-241.86,0-.17,0-.33,0-.5q0-2.07,2.03-2.07c24.29,0,48.58,0,72.87,0q1.91,0,1.91,1.93c0,40.5,0,81,0,121.49Z"/>
  <path class="cls-2" d="M161.59,116.66c-.14,24.98-19.84,45.58-45.31,45.6-25.39.02-45.42-20.52-45.35-45.79.07-25.33,20.29-45.54,45.35-45.53,25.16.01,45.22,20.41,45.3,45.72Z"/>
</svg>