<?xml version="1.0" encoding="utf-8"?>
<!-- Generator: Adobe Illustrator 28.1.0, SVG Export Plug-In . SVG Version: 6.00 Build 0)  -->
<svg version="1.1" id="Layer_1" xmlns="http://www.w3.org/2000/svg" xmlns:xlink="http://www.w3.org/1999/xlink" x="0px" y="0px"
	 viewBox="0 0 320 320" style="enable-background:new 0 0 320 320;" xml:space="preserve">
<style type="text/css">
	.st0{fill:#004D57;}
</style>
<path class="st0" d="M59.7,159.7c0-13.7,0-27.4,0-41.1c0.1-11.3,5.2-20,14.8-25.7c23.5-13.8,47-27.5,70.6-41
	c9.8-5.6,19.9-5.6,29.7,0c23.8,13.6,47.4,27.4,71,41.3c9.5,5.6,14.5,14.2,14.5,25.3c0.1,27.4,0,54.9,0,82.3
	c0,11.9-5.2,20.7-15.4,26.6c-23.2,13.5-46.4,27.1-69.7,40.5c-10,5.8-20.3,5.8-30.3,0c-23.5-13.5-46.9-27.2-70.3-40.9
	c-9.7-5.7-14.8-14.3-14.8-25.7C59.6,187.5,59.7,173.6,59.7,159.7L59.7,159.7L59.7,159.7z M159.9,152.7c3.5-1.1,7-1.9,10.1-3.4
	c3.8-1.8,7.4-4.2,11.1-6.3c19.8-11.5,39.6-23,59.3-34.5c3.4-2,3.4-5.6,0.1-7.7c-0.4-0.3-0.9-0.6-1.3-0.8
	c-19.7-11.5-39.4-22.9-59.1-34.4c-2.6-1.5-5.2-2.9-7.7-4.5c-8.2-5.3-16.2-5.1-24.7-0.1c-22.5,13.3-45.2,26.4-67.9,39.6
	c-3.8,2.2-3.8,5.8-0.1,7.9c23.4,13.7,46.9,27.3,70.4,40.8C153,150.9,156.4,151.5,159.9,152.7L159.9,152.7z M164.6,209.9
	c0,14.3,0.2,28.6-0.1,42.9c-0.1,4.6,4.5,8.2,9.3,5.4c22-13,44.2-25.8,66.3-38.7c7.7-4.4,11.3-11,11.2-19.8c-0.1-12.9,0-25.7,0-38.6
	c0-12.7,0-25.4,0-38.1c0-5.3-4.4-7.9-8.9-5.4c-24.8,14.4-49.5,28.8-74.3,43.2c-2.4,1.4-3.6,3.4-3.5,6.2
	C164.7,181.5,164.6,195.7,164.6,209.9L164.6,209.9z M155.4,210.2c0-14.2-0.1-28.4,0-42.7c0-3.1-1.1-5.1-3.7-6.6
	c-24.6-14.3-49.2-28.6-73.9-42.9c-4.6-2.6-9.1-0.2-9.1,5c-0.1,26.2-0.1,52.5,0.1,78.7c0.1,7.7,3.8,13.6,10.5,17.6
	c22.3,13,44.7,26,67,39c4.8,2.8,9.1,0.3,9.1-5.4C155.4,238.6,155.4,224.4,155.4,210.2L155.4,210.2z"/>
<path class="st0" d="M161.3,112.6c-5.5,0-9.3-0.8-12.6-3.2c-3.7-2.7-3.7-6.8-0.2-9.6c5.6-4.5,17.4-4.4,22.8,0.1
	c3.3,2.7,3.4,6.4,0.1,9.1C168.1,111.9,164.1,112.6,161.3,112.6L161.3,112.6z"/>
<path class="st0" d="M218.9,182.1c-0.8,6.8-3.7,12.8-10.1,16.7c-5.3,3.2-9.9,0.6-9.8-5.6c0.2-7.4,3.6-13.2,9.8-17.2
	c2.1-1.4,4.6-2,7-0.7C218.3,176.6,218.7,179.1,218.9,182.1L218.9,182.1z"/>
<path class="st0" d="M178.3,228.8c0.9-6.6,3.7-12.5,10-16.3c5.4-3.2,9.9-0.7,9.8,5.5c-0.2,7.4-3.6,13.2-9.8,17.2
	c-2.2,1.4-4.7,2.2-7.2,0.6C178.7,234.4,178.4,231.9,178.3,228.8L178.3,228.8z"/>
<path class="st0" d="M239.4,146.9c-0.7,7.2-3.8,13.2-10.2,17c-5.3,3.1-9.6,0.5-9.5-5.7c0.1-7.2,3.5-12.9,9.3-17
	c2.2-1.6,4.8-2.5,7.4-1C239,141.7,239.4,144.2,239.4,146.9L239.4,146.9z"/>
<path class="st0" d="M141.6,230c-0.1,1.9-0.4,4.4-2.8,5.9c-2.6,1.6-5.2,0.7-7.4-0.8c-5.9-4-9.3-9.7-9.6-16.9
	c-0.2-6.4,4.3-8.9,9.8-5.8C137.1,215.5,141.6,223.2,141.6,230L141.6,230z"/>
<path class="st0" d="M101.2,181.7c0-6.3,4.5-8.9,9.9-5.8c6.2,3.5,10.8,12.6,9.7,19c-0.7,4.5-3.9,6.3-8.2,4.6
	C106.7,197.1,101.2,188.6,101.2,181.7L101.2,181.7z"/>
<path class="st0" d="M100.3,204.6c-0.1,3.5-0.4,6-2.8,7.4c-2.5,1.5-5,0.7-7.2-0.8c-6.1-4-9.5-9.7-9.7-17c-0.2-6.4,4.4-9,9.9-5.6
	C96.6,192.4,99.5,198.4,100.3,204.6L100.3,204.6z"/>
<path class="st0" d="M141.7,180.5c0,7.9-4.6,10.5-9.9,7.1c-6.3-4-9.7-9.9-9.7-17.5c0-5.8,4.2-8.4,9.3-5.5
	C138,168.4,141.1,174.6,141.7,180.5L141.7,180.5z"/>
<path class="st0" d="M100.4,157.9c0,2.6-0.5,5.1-2.8,6.5c-2.5,1.5-5,0.7-7.2-0.8c-6.3-4.2-9.7-10.1-9.7-17.8
	c0.1-5.4,4.2-7.9,8.9-5.3C96.5,144.2,99.6,150.4,100.4,157.9z"/>
</svg>
