<?xml version="1.0" encoding="UTF-8"?>
<svg id="Layer_1" data-name="Layer 1" xmlns="http://www.w3.org/2000/svg" viewBox="0 0 320 320">
  <defs>
    <style>
      .cls-1 {
        fill: #f0f0f0;
      }

      .cls-1, .cls-2, .cls-3 {
        stroke-width: 0px;
      }

      .cls-2 {
        fill: #fff;
      }

      .cls-3 {
        fill: #004d57;
      }
    </style>
  </defs>
  <path class="cls-1" d="M320,320H0C0,213.33,0,106.67,0,0c106.67,0,213.33,0,320,0,0,106.67,0,213.33,0,320ZM59.69,159.73h-.02c0,13.88-.07,27.76.02,41.65.07,11.33,5.14,19.97,14.85,25.67,23.4,13.73,46.84,27.37,70.34,40.92,10.03,5.78,20.31,5.74,30.33-.04,23.27-13.43,46.47-26.98,69.68-40.51,10.19-5.94,15.44-14.78,15.44-26.64,0-27.42.03-54.85-.04-82.27-.03-11.13-5-19.73-14.5-25.34-23.58-13.92-47.24-27.71-70.99-41.32-9.75-5.59-19.95-5.55-29.69.05-23.6,13.55-47.09,27.27-70.55,41.05-9.7,5.7-14.79,14.31-14.85,25.66-.07,13.71-.02,27.42-.02,41.14Z"/>
  <path class="cls-3" d="M59.69,159.73c0-13.71-.05-27.42.02-41.14.06-11.35,5.15-19.96,14.85-25.66,23.46-13.78,46.96-27.51,70.55-41.05,9.75-5.6,19.95-5.64,29.69-.05,23.76,13.61,47.41,27.4,70.99,41.32,9.5,5.61,14.47,14.22,14.5,25.34.08,27.42.04,54.85.04,82.27,0,11.86-5.24,20.7-15.44,26.64-23.21,13.53-46.41,27.08-69.68,40.51-10.03,5.79-20.31,5.82-30.33.04-23.5-13.54-46.95-27.19-70.34-40.92-9.71-5.7-14.78-14.34-14.85-25.67-.09-13.88-.02-27.76-.02-41.65h.02ZM159.9,152.66c3.47-1.15,6.96-1.95,10.12-3.44,3.83-1.8,7.4-4.18,11.07-6.32,19.77-11.5,39.55-23,59.31-34.52,3.42-2,3.44-5.56.1-7.7-.43-.28-.86-.55-1.3-.8-19.69-11.47-39.39-22.93-59.08-34.4-2.57-1.5-5.21-2.88-7.72-4.49-8.23-5.27-16.24-5.09-24.68-.1-22.54,13.35-45.25,26.4-67.87,39.6-3.78,2.2-3.82,5.8-.14,7.95,23.44,13.65,46.86,27.34,70.39,40.84,2.86,1.64,6.32,2.21,9.8,3.38ZM164.63,209.93c0,14.3.21,28.61-.12,42.91-.11,4.65,4.51,8.25,9.26,5.44,22.03-13.02,44.17-25.84,66.31-38.66,7.66-4.43,11.27-10.99,11.23-19.75-.05-12.86-.01-25.71-.01-38.57,0-12.69.03-25.37-.02-38.06-.02-5.28-4.42-7.95-8.85-5.38-24.78,14.37-49.54,28.79-74.32,43.16-2.45,1.42-3.55,3.36-3.53,6.25.08,14.22.04,28.44.04,42.66ZM155.37,210.19c0-14.22-.06-28.44.04-42.66.02-3.08-1.09-5.1-3.74-6.64-24.64-14.26-49.25-28.59-73.88-42.89-4.55-2.64-9.07-.25-9.08,4.98-.06,26.22-.11,52.45.06,78.67.05,7.71,3.79,13.64,10.5,17.56,22.33,13.01,44.66,26.01,67,39,4.82,2.8,9.09.26,9.1-5.37,0-14.22,0-28.44,0-42.66Z"/>
  <path class="cls-2" d="M159.9,152.66c-3.48-1.17-6.94-1.74-9.8-3.38-23.53-13.5-46.95-27.19-70.39-40.84-3.68-2.15-3.64-5.74.14-7.95,22.62-13.2,45.34-26.25,67.87-39.6,8.44-5,16.45-5.18,24.68.1,2.5,1.6,5.15,2.99,7.72,4.49,19.7,11.46,39.39,22.93,59.08,34.4.44.26.87.53,1.3.8,3.34,2.14,3.33,5.71-.1,7.7-19.76,11.52-39.54,23.02-59.31,34.52-3.67,2.14-7.24,4.52-11.07,6.32-3.16,1.49-6.65,2.29-10.12,3.44ZM161.29,112.64c2.77,0,6.85-.69,10.21-3.54,3.26-2.76,3.15-6.41-.15-9.13-5.46-4.51-17.22-4.56-22.82-.1-3.56,2.83-3.5,6.96.18,9.63,3.3,2.4,7.1,3.13,12.58,3.15Z"/>
  <path class="cls-2" d="M164.63,209.93c0-14.22.05-28.44-.04-42.66-.02-2.89,1.08-4.82,3.53-6.25,24.78-14.37,49.53-28.79,74.32-43.16,4.43-2.57,8.83.1,8.85,5.38.05,12.69.02,25.37.02,38.06,0,12.86-.03,25.71.01,38.57.03,8.76-3.57,15.32-11.23,19.75-22.15,12.81-44.29,25.64-66.31,38.66-4.75,2.81-9.37-.79-9.26-5.44.33-14.3.12-28.61.12-42.91ZM218.88,182.08c-.16-3.02-.55-5.51-3-6.87-2.41-1.33-4.88-.71-7.01.7-6.17,4.05-9.6,9.84-9.82,17.22-.19,6.2,4.43,8.85,9.75,5.61,6.34-3.86,9.32-9.88,10.08-16.66ZM178.3,228.77c.13,3.09.4,5.58,2.79,7.07,2.51,1.57,5.02.79,7.21-.64,6.19-4.03,9.59-9.85,9.8-17.23.17-6.21-4.4-8.75-9.78-5.52-6.31,3.8-9.16,9.77-10.03,16.32ZM239.42,146.94c0-2.7-.39-5.26-2.95-6.68-2.63-1.46-5.24-.54-7.44,1.02-5.82,4.11-9.18,9.73-9.32,16.96-.11,6.15,4.2,8.77,9.5,5.66,6.41-3.76,9.48-9.71,10.2-16.96Z"/>
  <path class="cls-2" d="M155.37,210.19c0,14.22,0,28.44,0,42.66,0,5.63-4.28,8.17-9.1,5.37-22.34-12.99-44.67-25.99-67-39-6.71-3.91-10.45-9.84-10.5-17.56-.16-26.22-.12-52.45-.06-78.67.01-5.23,4.54-7.62,9.08-4.98,24.62,14.3,49.23,28.63,73.88,42.89,2.66,1.54,3.77,3.56,3.74,6.64-.1,14.22-.04,28.44-.04,42.66ZM141.65,229.98c-.03-6.82-4.51-14.46-9.93-17.55-5.55-3.16-10.05-.62-9.81,5.77.27,7.18,3.6,12.85,9.55,16.85,2.25,1.51,4.82,2.39,7.43.8,2.4-1.46,2.67-3.97,2.76-5.87ZM101.18,181.66c0,6.93,5.47,15.41,11.44,17.77,4.31,1.7,7.47-.07,8.21-4.59,1.05-6.42-3.58-15.45-9.73-18.98-5.46-3.14-9.93-.52-9.92,5.81ZM100.27,204.57c-.77-6.16-3.65-12.12-9.9-15.96-5.45-3.35-10.07-.74-9.86,5.62.24,7.29,3.66,12.99,9.71,17.02,2.19,1.46,4.72,2.22,7.22.75,2.41-1.41,2.78-3.9,2.84-7.43ZM141.73,180.53c-.64-5.95-3.7-12.08-10.35-15.88-5.09-2.91-9.35-.37-9.32,5.47.05,7.53,3.46,13.45,9.72,17.48,5.36,3.45,9.9.78,9.94-7.08ZM100.39,157.92c-.8-7.5-3.89-13.68-10.77-17.36-4.77-2.55-8.88-.06-8.93,5.32-.07,7.66,3.39,13.55,9.65,17.78,2.18,1.47,4.72,2.3,7.21.79,2.35-1.43,2.87-3.87,2.84-6.53Z"/>
  <path class="cls-3" d="M161.29,112.64c-5.48-.01-9.28-.75-12.58-3.15-3.68-2.68-3.74-6.8-.18-9.63,5.6-4.46,17.36-4.41,22.82.1,3.3,2.73,3.41,6.37.15,9.13-3.36,2.85-7.44,3.54-10.21,3.54Z"/>
  <path class="cls-3" d="M218.88,182.08c-.76,6.78-3.74,12.8-10.08,16.66-5.32,3.24-9.93.59-9.75-5.61.22-7.38,3.65-13.17,9.82-17.22,2.13-1.4,4.6-2.03,7.01-.7,2.45,1.36,2.84,3.85,3,6.87Z"/>
  <path class="cls-3" d="M178.3,228.77c.86-6.55,3.71-12.52,10.03-16.32,5.38-3.24,9.95-.69,9.78,5.52-.21,7.38-3.61,13.19-9.8,17.23-2.19,1.43-4.7,2.21-7.21.64-2.39-1.49-2.66-3.98-2.79-7.07Z"/>
  <path class="cls-3" d="M239.42,146.94c-.72,7.25-3.79,13.2-10.2,16.96-5.3,3.11-9.62.49-9.5-5.66.13-7.23,3.5-12.85,9.32-16.96,2.2-1.55,4.81-2.47,7.44-1.02,2.56,1.42,2.95,3.98,2.95,6.68Z"/>
  <path class="cls-3" d="M141.65,229.98c-.08,1.9-.35,4.41-2.76,5.87-2.61,1.59-5.19.71-7.43-.8-5.95-4-9.28-9.68-9.55-16.85-.24-6.39,4.27-8.93,9.81-5.77,5.42,3.09,9.9,10.73,9.93,17.55Z"/>
  <path class="cls-3" d="M101.18,181.66c0-6.33,4.46-8.94,9.92-5.81,6.15,3.53,10.78,12.56,9.73,18.98-.74,4.52-3.9,6.29-8.21,4.59-5.97-2.36-11.44-10.84-11.44-17.77Z"/>
  <path class="cls-3" d="M100.27,204.57c-.06,3.53-.44,6.01-2.84,7.43-2.5,1.47-5.02.71-7.22-.75-6.05-4.03-9.47-9.74-9.71-17.02-.21-6.36,4.41-8.97,9.86-5.62,6.26,3.84,9.13,9.81,9.9,15.96Z"/>
  <path class="cls-3" d="M141.73,180.53c-.04,7.85-4.58,10.53-9.94,7.08-6.27-4.03-9.68-9.95-9.72-17.48-.04-5.84,4.22-8.38,9.32-5.47,6.65,3.79,9.71,9.93,10.35,15.88Z"/>
  <path class="cls-3" d="M100.39,157.92c.03,2.65-.49,5.09-2.84,6.53-2.49,1.52-5.03.68-7.21-.79-6.26-4.23-9.72-10.12-9.65-17.78.05-5.38,4.15-7.87,8.93-5.32,6.88,3.68,9.97,9.86,10.77,17.36Z"/>
</svg>