<?xml version="1.0" encoding="UTF-8"?>
<svg id="Layer_1" data-name="Layer 1" xmlns="http://www.w3.org/2000/svg" viewBox="0 0 301.5 356.19">
  <defs>
    <style>
      .cls-1 {
        fill: #004d57;
        stroke-width: 0px;
      }
    </style>
  </defs>
  <path class="cls-1" d="M.21,8.61l-.21,164.25s9.71,80.68,93.18,79.44l.21-166.94S77.89,5.82.21,8.61Z"/>
  <path class="cls-1" d="M280.33,1.07c6.48-2.93,14.06.4,16.24,7.17,2.8,8.68,5.37,24.22,4.87,51.93-.99,54.91-102.39,86.33-145.81,114.7-3.27,2.13-3.02,5.22.53,6.84,26.95,12.29,104.3,47.8,123.38,70.41,23.56,27.9,21.88,44.04,21.88,44.04l-.09,28.02c.03,7.03-1.25,14.02-3.83,20.56-.89,2.25-1.96,4.66-3.25,7.18-1.99,3.87-6.75,5.4-10.64,3.43-24.14-12.29-107.36-55.09-142.02-78.63-5.68-3.86-10.7-8.59-14.87-14.03-7.07-9.23-16.73-24.69-17.12-40.63l.16-90.03s-2.03-43.33,82.26-82.57c3.79-1.76,7.5-3.7,11.1-5.82,15.08-8.93,56.81-33.33,77.2-42.56Z"/>
</svg>