<?xml version="1.0" encoding="utf-8"?>
<!-- Generator: Adobe Illustrator 28.1.0, SVG Export Plug-In . SVG Version: 6.00 Build 0)  -->
<svg version="1.1" id="Layer_1" xmlns="http://www.w3.org/2000/svg" xmlns:xlink="http://www.w3.org/1999/xlink" x="0px" y="0px"
	 viewBox="0 0 301.5 356.2" style="enable-background:new 0 0 301.5 356.2;" xml:space="preserve">
<style type="text/css">
	.st0{fill:#004D57;}
</style>
<g>
	<path class="st0" d="M63.3,79.6L63.1,175c0,0,5.6,46.9,54.1,46.2l0.1-97C117.4,124.2,108.4,78,63.3,79.6z"/>
	<path class="st0" d="M226.1,75.2c3.8-1.7,8.2,0.2,9.4,4.2c1.6,5,3.1,14.1,2.8,30.2c-0.6,31.9-59.5,50.2-84.7,66.7
		c-1.9,1.2-1.8,3,0.3,4c15.7,7.1,60.6,27.8,71.7,40.9c13.7,16.2,12.7,25.6,12.7,25.6l-0.1,16.3c0,4.1-0.7,8.1-2.2,11.9
		c-0.5,1.3-1.1,2.7-1.9,4.2c-1.2,2.2-3.9,3.1-6.2,2c-14-7.1-62.4-32-82.5-45.7c-3.3-2.2-6.2-5-8.6-8.2c-4.1-5.4-9.7-14.3-9.9-23.6
		l0.1-52.3c0,0-1.2-25.2,47.8-48c2.2-1,4.4-2.2,6.5-3.4C189.9,94.8,214.2,80.6,226.1,75.2L226.1,75.2z"/>
</g>
</svg>
